<svg width="28" height="28" viewBox="0 0 28 28" fill="none" xmlns="http://www.w3.org/2000/svg">
<path d="M8.25863 27.6333C7.54136 27.6333 6.93009 27.3779 6.42483 26.8671C5.91954 26.3563 5.66689 25.7423 5.66689 25.025C5.66689 24.3078 5.92228 23.6965 6.43306 23.1912C6.94386 22.6859 7.55789 22.4333 8.27516 22.4333C8.99243 22.4333 9.60371 22.6887 10.109 23.1995C10.6143 23.7103 10.8669 24.3243 10.8669 25.0416C10.8669 25.7588 10.6115 26.3701 10.1007 26.8754C9.58993 27.3807 8.97589 27.6333 8.25863 27.6333ZM21.992 27.6333C21.2747 27.6333 20.6634 27.3779 20.1581 26.8671C19.6529 26.3563 19.4002 25.7423 19.4002 25.025C19.4002 24.3078 19.6556 23.6965 20.1664 23.1912C20.6772 22.6859 21.2912 22.4333 22.0085 22.4333C22.7258 22.4333 23.337 22.6887 23.8423 23.1995C24.3476 23.7103 24.6002 24.3243 24.6002 25.0416C24.6002 25.7588 24.3448 26.3701 23.8341 26.8754C23.3233 27.3807 22.7092 27.6333 21.992 27.6333ZM6.76689 5.26662L10.3669 12.7H20.0669L24.1336 5.26662H6.76689ZM5.56689 2.83328H26.1027C26.6021 2.83328 26.9821 3.06662 27.2427 3.53328C27.5033 3.99995 27.5002 4.46662 27.2336 4.93328L22.4002 13.6C22.1545 14.0465 21.8158 14.4137 21.3842 14.7016C20.9526 14.9894 20.4802 15.1333 19.9669 15.1333H9.66689L8.00023 18.2H24.6336V20.6333H7.93356C6.91134 20.6333 6.18356 20.2833 5.75023 19.5833C5.31689 18.8833 5.32245 18.1111 5.76689 17.2666L7.83356 13.4L2.76689 2.63328H0.0668945V0.199951H4.33356L5.56689 2.83328Z" fill="black"/>
</svg>
