<svg width="24" height="32" viewBox="0 0 24 32" fill="none" xmlns="http://www.w3.org/2000/svg">
<path d="M7.39977 22.4666L0.933105 15.9999L7.39977 9.53327L9.13311 11.2999L4.43311 15.9999L9.13311 20.6999L7.39977 22.4666ZM2.16644 23.1999H4.59977V25.5333H19.3998V23.1999H21.8331V28.7999C21.8331 29.4383 21.5871 30.0034 21.0952 30.4953C20.6032 30.9873 20.0381 31.2333 19.3998 31.2333H4.59977C3.96144 31.2333 3.39629 30.9873 2.90434 30.4953C2.41241 30.0034 2.16644 29.4383 2.16644 28.7999V23.1999ZM4.59977 8.39994H2.16644V3.19993C2.16644 2.5616 2.41241 1.99647 2.90434 1.50453C3.39629 1.01258 3.96144 0.766602 4.59977 0.766602H19.3998C20.0381 0.766602 20.6032 1.01258 21.0952 1.50453C21.5871 1.99647 21.8331 2.5616 21.8331 3.19993V8.39994H19.3998V6.4666H4.59977V8.39994ZM4.59977 27.9666V28.7999H19.3998V27.9666H4.59977ZM4.59977 4.03327H19.3998V3.19993H4.59977V4.03327ZM16.5998 22.4666L14.8664 20.6999L19.5664 15.9999L14.8664 11.2999L16.5998 9.53327L23.0664 15.9999L16.5998 22.4666Z" fill="black"/>
</svg>
