<svg width="28" height="24" viewBox="0 0 28 24" fill="none" xmlns="http://www.w3.org/2000/svg">
<path d="M2.56663 23.1667C1.9283 23.1667 1.36317 22.9207 0.871234 22.4288C0.379279 21.9369 0.133301 21.3717 0.133301 20.7334V3.26671C0.133301 2.62837 0.379279 2.06324 0.871234 1.57131C1.36317 1.07935 1.9283 0.833374 2.56663 0.833374H25.4333C26.0716 0.833374 26.6368 1.07935 27.1287 1.57131C27.6207 2.06324 27.8666 2.62837 27.8666 3.26671V20.7334C27.8666 21.3717 27.6207 21.9369 27.1287 22.4288C26.6368 22.9207 26.0716 23.1667 25.4333 23.1667H2.56663ZM2.56663 20.7334H17.8666V15.4334H2.56663V20.7334ZM20.3 20.7334H25.4333V7.66671H20.3V20.7334ZM2.56663 13H17.8666V7.66671H2.56663V13Z" fill="black"/>
</svg>
